<?xml version="1.0" encoding="UTF-8"?>
<svg id="Layer_2" data-name="Layer 2" xmlns="http://www.w3.org/2000/svg" viewBox="0 0 152.11 52.03">
  <g id="Layer_2-2" data-name="Layer 2">
    <g id="Layer_1-2" data-name="Layer 1-2">
      <g>
        <path d="M29.45,10.35c-.5-1.88-1.28-3.51-2.33-4.89-1.06-1.38-2.4-2.48-4.02-3.27-1.62-.8-3.53-1.2-5.73-1.2H0v49.57h11.58v-18.44h4.05c4.77,0,8.4-1.3,10.87-3.91,2.47-2.61,3.7-6.51,3.7-11.73,0-2.21-.25-4.25-.75-6.13ZM17.09,21.2c-.77.99-1.88,1.48-3.33,1.48h-2.18v-12.25h2.18c2.99,0,4.48,2.04,4.48,6.13,0,2.11-.38,3.66-1.15,4.65h0Z"/>
        <path d="M119.29,24.72c-1.41-1.17-2.93-2.12-4.54-2.85-1.62-.73-3.13-1.44-4.55-2.15s-2.58-1.54-3.52-2.5c-.93-.96-1.4-2.26-1.4-3.91,0-1.13.29-2.15.87-3.06.58-.92,1.49-1.37,2.74-1.37,1.12,0,1.95.53,2.49,1.58.54,1.06.81,2.34.81,3.84v1.2h10.83c0-5.4-1.13-9.33-3.39-11.8s-5.93-3.7-10.99-3.7-8.55,1.34-10.96,4.01c-2.41,2.67-3.61,6.57-3.61,11.69,0,2.96.45,5.35,1.34,7.18s2.01,3.31,3.36,4.44c1.35,1.13,2.81,2.04,4.39,2.75,1.58.7,3.04,1.4,4.39,2.08,1.35.68,2.47,1.5,3.36,2.47.89.96,1.34,2.27,1.34,3.91,0,1.36-.32,2.51-.97,3.45-.64.94-1.57,1.41-2.77,1.41-1.12,0-2.03-.43-2.74-1.3s-1.06-2.38-1.06-4.54v-1.2h-11.21v1.76c0,.54.02,1.05.05,1.55L85.24.99h-14.57l-9.65,45.58V.99h-11.58v18.45h-7.1V.99h-11.58v41.69c-.67-.16-1.33-.31-2-.47v8.33h11.58v-4.97c.67.15,1.33.3,2,.44v-15.44h7.1v16.4c-.67-.18-1.33-.36-2-.55v4.85h11.58v-1.68c-.17-.05-.34-.09-.5-.14.6.13,1.21.26,1.81.38h0l-.3,1.43h12.14l1.18-8.8h9.21l1.18,8.8h12.33l-1.27-5.89c.65,1.48,1.5,2.71,2.61,3.67,1.27,1.1,2.82,1.88,4.67,2.32,1.85.45,3.97.67,6.38.67,5.11,0,9.01-1.21,11.71-3.63s4.05-6.3,4.05-11.66c0-3.05-.47-5.53-1.4-7.43s-2.11-3.44-3.52-4.61v.02ZM74.71,32.61l3.18-21.34h.12l3.18,21.34h-6.48Z"/>
        <polygon points="136.79 40.57 136.79 30.57 150.61 30.57 150.61 20.28 136.79 20.28 136.79 11.69 151.55 11.69 151.55 .99 125.21 .99 125.21 51.27 152.11 51.27 152.11 40.57 136.79 40.57"/>
      </g>
    </g>
  </g>
</svg>