<?xml version="1.0" encoding="UTF-8"?>
<svg id="Layer_2" data-name="Layer 2" xmlns="http://www.w3.org/2000/svg" viewBox="0 0 176.95 119.08">
  <g id="Layer_1-2" data-name="Layer 1">
    <g>
      <g>
        <path d="M84.79,26.35c-.67-6.03-1.22-11.99,3.19-16.31,3.83-3.71,10.07-3.46,15.14-5.3,2.02-.73,3.95-1.69,5.79-2.8.62-.37,1.22-.76,1.82-1.15.22-.15.13-.08.94-.65.32-.23.3-.25.22.4-.07.58-.12,1.05-.14,1.23-.1.93-.25,1.85-.45,2.76-.9,4.09-2.78,7.89-5.81,10.82-2.24,2.16-4.95,3.75-7.73,5.15-2.08,1.05-4.21,2-6.42,2.72-.52.17-3.38,1.3-3.79.94-.36-.32.53-2.55.68-3,.58-1.7,1.39-3.32,2.43-4.79,1.26-1.79,2.84-3.34,4.67-4.54.1-.07.3-.23.39-.25-4.93,1.34-9.85,3.05-10.76,15.69"/>
        <path d="M82.44,27.58c-.27-3.06-.6-6.08-3.22-7.78-2.27-1.46-5.35-.71-8.05-1.11-1.08-.16-4.25-1.22-4.71-1.43-.18-.08-.18-.09-.07.22.09.28.17.51.19.6.14.45.31.89.5,1.33.86,1.94,2.17,3.64,3.98,4.79,1.33.85,2.84,1.37,4.36,1.78,1.14.31,2.29.57,3.46.7.28.03,1.81.3,1.98.09.15-.19-.52-1.21-.64-1.42-.46-.79-1.03-1.51-1.69-2.14-.81-.76-1.75-1.37-2.77-1.79-.06-.02-.17-.08-.22-.09,2.58.17,5.2.52,6.92,6.71"/>
        <path d="M83.62,28.06c3.61,7.92,2.08,11.55-2.54,18.93"/>
        <path d="M87.22,43.16c1.18-2.35,4.01-4.45,6.74-3.24.57.27.99.68,1.27.91.51.43,1.47.52,2.3-.05l.07.05c-.59.82-1.81,1.11-2.7.6-.81-.56-1.64-1.06-2.66-.98-2,.03-3.58,1.46-4.96,2.77,0,0-.06-.06-.06-.06h0Z"/>
        <path d="M85.65,44.28c5.59.18,10.74-.6,15.42-3.96,0,0,.15.1.15.1-3.37,5.24-10.13,6.49-15.63,4.03,0,0,.06-.16.06-.16h0Z"/>
      </g>
      <g>
        <path d="M13.1,89.19h.15l5.3-26.42h7.45l-8.21,35.72h-9.26L.35,62.77h7.71l5.05,26.42Z"/>
        <path d="M47.38,68.67h-12.76v8.41h12.01v5.9h-12.01v9.61h13.26v5.9h-20.46v-35.72h19.96v5.9Z"/>
        <path d="M63.53,62.77c3,0,5.34.76,7,2.28,1.67,1.52,2.5,3.83,2.5,6.93,0,2.4-.48,4.36-1.45,5.88-.97,1.52-2.47,2.49-4.5,2.93v.1c1.8.27,3.12.85,3.95,1.75.83.9,1.35,2.35,1.55,4.35.07.67.12,1.39.15,2.18.03.78.07,1.66.1,2.63.07,1.9.17,3.35.3,4.35.2,1,.63,1.68,1.3,2.05v.3h-7.8c-.37-.5-.6-1.08-.7-1.73s-.17-1.33-.2-2.03l-.2-6.85c-.07-1.4-.42-2.5-1.05-3.3-.63-.8-1.7-1.2-3.2-1.2h-3.85v15.11h-7.2v-35.72h13.31ZM60.43,78.38c1.73,0,3.07-.41,4-1.23.93-.82,1.4-2.19,1.4-4.13,0-3.3-1.67-4.95-5-4.95h-3.4v10.31h3Z"/>
        <path d="M88.95,62.77c2.5,0,4.52.41,6.05,1.23,1.53.82,2.73,1.98,3.58,3.5.85,1.52,1.43,3.34,1.73,5.48.3,2.13.45,4.52.45,7.15,0,3.14-.19,5.86-.58,8.18-.38,2.32-1.04,4.23-1.98,5.73-.93,1.5-2.18,2.62-3.75,3.35-1.57.73-3.55,1.1-5.95,1.1h-11.36v-35.72h11.81ZM87.55,93.19c1.27,0,2.28-.22,3.05-.65.77-.43,1.38-1.15,1.83-2.15s.75-2.32.9-3.95c.15-1.63.23-3.67.23-6.1,0-2.03-.07-3.82-.2-5.35-.13-1.53-.41-2.81-.83-3.83-.42-1.02-1.03-1.78-1.85-2.3-.82-.52-1.91-.78-3.28-.78h-3.05v25.12h3.2Z"/>
        <path d="M111.01,87.69c0,.9.06,1.73.17,2.48.12.75.33,1.4.65,1.95.32.55.75.98,1.3,1.3.55.32,1.24.48,2.08.48s1.57-.16,2.1-.48c.53-.32.96-.75,1.28-1.3.32-.55.53-1.2.65-1.95.12-.75.18-1.58.18-2.48v-24.92h7.2v24.92c0,2.27-.32,4.14-.95,5.63-.63,1.48-1.48,2.66-2.55,3.53-1.07.87-2.29,1.45-3.65,1.75-1.37.3-2.79.45-4.25.45s-2.89-.13-4.25-.4c-1.37-.27-2.58-.81-3.65-1.63-1.07-.82-1.92-1.98-2.55-3.48-.63-1.5-.95-3.45-.95-5.85v-24.92h7.2v24.92Z"/>
        <path d="M143.23,62.77c3,0,5.34.76,7,2.28,1.67,1.52,2.5,3.83,2.5,6.93,0,2.4-.48,4.36-1.45,5.88-.97,1.52-2.47,2.49-4.5,2.93v.1c1.8.27,3.12.85,3.95,1.75.83.9,1.35,2.35,1.55,4.35.07.67.12,1.39.15,2.18.03.78.07,1.66.1,2.63.07,1.9.17,3.35.3,4.35.2,1,.63,1.68,1.3,2.05v.3h-7.8c-.37-.5-.6-1.08-.7-1.73s-.17-1.33-.2-2.03l-.2-6.85c-.07-1.4-.42-2.5-1.05-3.3-.63-.8-1.7-1.2-3.2-1.2h-3.85v15.11h-7.2v-35.72h13.31ZM140.13,78.38c1.73,0,3.07-.41,4-1.23.93-.82,1.4-2.19,1.4-4.13,0-3.3-1.67-4.95-5-4.95h-3.4v10.31h3Z"/>
        <path d="M176.45,68.67h-12.76v8.41h12.01v5.9h-12.01v9.61h13.26v5.9h-20.46v-35.72h19.96v5.9Z"/>
      </g>
      <g>
        <path d="M46.89,118.91v-10.02h1.65v3.94h3.26v-3.94h1.65v10.02h-1.65v-4.38h-3.26v4.38h-1.65Z"/>
        <path d="M65.38,118.91h-1.8l-.72-2.27h-3.29l-.68,2.27h-1.76l3.2-10.02h1.76l3.29,10.02ZM62.33,114.94l-1.13-3.72-1.11,3.72h2.25Z"/>
        <path d="M69.01,118.91v-10.02h1.65v10.02h-1.65Z"/>
        <path d="M75.05,118.91v-10.02h3.49c.89,0,1.53.09,1.91.27s.7.49.94.94.37.98.37,1.6c0,.78-.19,1.42-.56,1.89s-.91.78-1.6.9c.36.26.65.53.88.84s.55.85.95,1.63l1,1.96h-1.98l-1.2-2.18c-.43-.79-.73-1.28-.88-1.48s-.32-.33-.49-.41-.45-.11-.83-.11h-.34v4.18h-1.65ZM76.71,113.13h1.23c.75,0,1.23-.03,1.44-.1s.37-.2.5-.4.19-.47.19-.8-.06-.58-.19-.77-.3-.33-.52-.4c-.15-.05-.6-.08-1.35-.08h-1.3v2.54Z"/>
        <path d="M97.39,115.22l1.61.62c-.25,1.12-.67,1.94-1.25,2.46s-1.3.78-2.15.78c-1.07,0-1.94-.41-2.6-1.24-.77-.95-1.15-2.24-1.15-3.86,0-1.71.39-3.05,1.16-4.01.67-.84,1.57-1.26,2.7-1.26.92,0,1.69.31,2.31.94.44.45.77,1.11.97,1.99l-1.64.48c-.1-.54-.31-.96-.63-1.25-.31-.29-.68-.43-1.11-.43-.61,0-1.1.26-1.49.79s-.58,1.4-.58,2.62.19,2.16.56,2.69.86.8,1.46.8c.44,0,.82-.17,1.13-.51s.55-.88.69-1.62Z"/>
        <path d="M110.62,118.91h-1.8l-.72-2.27h-3.29l-.68,2.27h-1.76l3.2-10.02h1.76l3.29,10.02ZM107.57,114.94l-1.13-3.72-1.11,3.72h2.25Z"/>
        <path d="M114.3,118.91v-10.02h3.49c.89,0,1.53.09,1.91.27s.7.49.94.94.37.98.37,1.6c0,.78-.19,1.42-.56,1.89s-.91.78-1.6.9c.36.26.65.53.88.84s.55.85.95,1.63l1,1.96h-1.98l-1.2-2.18c-.43-.79-.73-1.28-.88-1.48s-.32-.33-.49-.41-.45-.11-.83-.11h-.34v4.18h-1.65ZM115.95,113.13h1.23c.75,0,1.23-.03,1.44-.1s.37-.2.5-.4.19-.47.19-.8-.06-.58-.19-.77-.3-.33-.52-.4c-.15-.05-.6-.08-1.35-.08h-1.3v2.54Z"/>
        <path d="M125.39,118.91v-10.02h6.1v1.7h-4.44v2.22h4.13v1.69h-4.13v2.72h4.59v1.7h-6.25Z"/>
      </g>
      <rect y="115.19" width="38.78" height=".5"/>
      <rect x="138.79" y="115.19" width="37.63" height=".5"/>
    </g>
  </g>
</svg>