<?xml version="1.0" encoding="UTF-8"?>
<svg id="Layer_2" data-name="Layer 2" xmlns="http://www.w3.org/2000/svg" viewBox="0 0 277.56 148.31">
  <g id="Layer_1-2" data-name="Layer 1">
    <g>
      <path d="M69.84,77.19c-1.91-.3-2.41-2.13-.46-3.29,9.63-5.81,16.08-17.55,16.08-26.82,0-14.06-10.09-26.4-31.46-32.18-5.27-1.53-9.98-2.96-14.21-4.21-2.15-.64-4.17-1.22-6.07-1.73-1.69-.46-2.8,1.42-2.01,3.55,1.08,2.92,1.46,5.93.85,8.37-1.03,4.1-4.74,6.13-8.75,4.85-1.11-.36-1.89.56-1.72,2.02.63,5.29-1.46,9.87-5.29,10.49-2.04.32-4.44-.54-6.75-2.28-1.66-1.25-3.13-.12-2.92,2.18,2.1,23.8,8.35,54.59,1.03,80.09-4.4,15.72,17.4,29.52,34.34,30.07,35.23,1.2,51.36-27.7,51.1-45.23-.23-13.12-8.44-23.45-23.78-25.86ZM37.22,51.63c14.19,1.96,13.2,17.41-.13,16.39-7.06-.83-11.19-6.05-11.22-10.22-.03-4.31,4.23-7.42,11.35-6.17ZM39.15,96.86c-16.43-3.38-19.13-24.52-.23-19.16,19.88,3.5,18.06,21.03.23,19.16Z"/>
      <path d="M124.32,102.86c.05,14.08-9.28,24.4-18.69,27.72-10.45,3.77-20.95-2.35-18.64-19.49,1.49-11.01,8.72-22.49,7.98-33.99-.87-13.06-5.7-27.99-5.31-40.33.47-16.25,10.46-24.68,20.1-26.58,10.98-2.08,21.51,3.7,17.16,18.67-4.73,16.49-8.7,16.47-9.63,36.64-.56,12.11,6.95,24.26,7.04,37.36Z"/>
      <path d="M159.16,52.85c-1.11-13.37-8.03-9.6-16.91-1.64-12.39,11.31-20.36,2.98-20.49-9.83-.2-15.91,13.27-27.59,27.74-29.56,4.94-.68,9.92.15,14.51,1.6.36.11.72.06,1.07-.14,4.59-2.67,9.6-4.62,14.51-5,14.47-1.13,27.94,7.43,27.74,20.11-.13,10.18-8.1,19.16-20.49,13.77-8.78-3.97-15.81-5.37-16.91,8.29-1.14,13.72,5.2,20.2,9.4,32.56,5.66,16.49-4.62,28.41-14.9,32.44-10.25,3.96-20.46-1.93-14.7-23.33,4.32-15.95,10.54-25.76,9.43-39.27Z"/>
      <path d="M241.93,11.03c22.1,7.36,32.88,22.99,35.17,31.34,2.32,8.99-4.2,12.13-16.6,8.42-9.32-2.49-14.37-11.76-26.84-15.74-12.6-3.47-11.07,10.8-2.9,12.58,10.1,2.67,16.5,1.18,27.85,5.37,13.42,5.74,9.9,14.18-.03,10.67-9.5-3.02-17.39-9.15-25.18-10.51-13.37-1.85-12.57,9.54-.55,10.33,10.53,1.23,14.32,1.33,21.2,2.25,10.88,1.71,19.39,12.5,20.59,20.15,1.43,9.94-7.65,12.88-35.78,10.69-16.67-1.3-39.81-.28-35.37-15.52,5.49-18.68,13.46-25.55,3.74-51.9-5.22-13.78,7.35-26.17,34.72-18.12Z"/>
      <path d="M11.74,9.9c-.09,2.71-2.8,3.45-6.04,1.4C2.46,9.25-.09,5.13,0,2.36.1-.41,2.8-.74,6.04,1.36c3.24,2.11,5.79,5.82,5.7,8.54Z"/>
      <path d="M10.43,20.17c.4,1.78-.62,3.13-2.28,2.95-1.66-.17-3.33-1.84-3.73-3.68-.4-1.84.62-3.1,2.28-2.88,1.66.22,3.33,1.82,3.73,3.6Z"/>
    </g>
  </g>
</svg>